<?xml version="1.0" standalone="no"?><!DOCTYPE svg PUBLIC "-//W3C//DTD SVG 1.1//EN" "http://www.w3.org/Graphics/SVG/1.1/DTD/svg11.dtd"><svg class="icon" height="512" viewBox="0 0 1024 1024" version="1.1" xmlns="http://www.w3.org/2000/svg"><path d="M999.623 973.236H727.867c172.721-81.72 292.115-257.488 292.115-461.236 0-281.728-228.263-509.991-509.991-509.991C228.264 2.009 0 230.272 0 512c0 280.204 225.771 507.359 505.282 509.991h494.341c13.435 0 24.377-10.942 24.377-24.377 0-13.435-10.942-24.378-24.377-24.378zM777.314 392.882c67.039 0 121.473 54.573 121.473 121.473 0.139 66.9-54.434 121.473-121.473 121.473s-121.473-54.572-121.473-121.473c0.001-67.039 54.574-121.473 121.473-121.473zM509.991 125.421c67.039 0 121.473 54.572 121.473 121.473 0 67.038-54.434 121.473-121.473 121.473s-121.473-54.573-121.473-121.473c0.001-67.04 54.574-121.473 121.473-121.473z m72.857 387.134c0 40.306-32.688 72.855-72.856 72.855-40.167 0-72.855-32.55-72.855-72.855 0-40.307 32.688-72.856 72.855-72.856 40.167-0.001 72.856 32.688 72.856 72.856z m-340.18 123.272c-67.038 0-121.473-54.572-121.473-121.473 0-67.038 54.573-121.473 121.473-121.473 67.039 0 121.473 54.573 121.473 121.473 0 66.901-54.434 121.473-121.473 121.473z m145.851 145.851c0-67.038 54.573-121.473 121.473-121.473 67.039 0 121.473 54.572 121.473 121.473S577.03 903.15 509.991 903.15s-121.472-54.572-121.472-121.472z" fill="#DD2727" /></svg>